<svg version="1.1" id="Layer_1" xmlns="http://www.w3.org/2000/svg" xmlns:xlink="http://www.w3.org/1999/xlink" x="0px" y="0px"
	 viewBox="0 0 480 480" style="enable-background:new 0 0 480 480;" xml:space="preserve">
<path style="fill:#81BAAB;" d="M317.664,50.352l63.992,63.984c1.448,1.448,2.344,3.448,2.344,5.664v296h32V16H112v32h200
	C314.216,48,316.216,48.896,317.664,50.352z"/>
<path style="fill:#95D8C6;" d="M368,128h-56c-4.424,0-8-3.584-8-8V64H64v400h304V128z M216,192c0,13.232-10.768,24-24,24
	s-24-10.768-24-24s10.768-24,24-24S216,178.768,216,192z M88,144c0-13.232,10.768-24,24-24s24,10.768,24,24s-10.768,24-24,24
	S88,157.232,88,144z M177.344,115.56l13.312,8.872l-64,96l-13.312-8.872L177.344,115.56z M312,432H120v-16h192V432z
	 M333.656,245.656l-136,136c-1.024,1.024-2.312,1.752-3.72,2.104l-61.848,15.464l-6.432,6.432l-11.312-11.312l6.432-6.44
	l15.464-61.848c0.352-1.408,1.08-2.688,2.104-3.712l136-136c16.36-16.352,42.952-16.352,59.312,0
	c7.92,7.92,12.288,18.456,12.288,29.656S341.576,237.736,333.656,245.656z"/>
<path style="fill:#EFD01B;" d="M285.656,197.656L275.312,208L312,244.688l10.344-10.344c4.896-4.904,7.6-11.416,7.6-18.344
	s-2.704-13.44-7.6-18.344C312.232,187.544,295.768,187.544,285.656,197.656z"/>
<circle style="fill:#95D8C6;" cx="192" cy="192" r="8"/>
<polygon style="fill:#EFD01B;" points="138.992,381 176.352,371.664 148.336,343.648 "/>
<g>
	
		<rect x="143.294" y="281.025" transform="matrix(-0.7071 0.7071 -0.7071 -0.7071 556.7318 349.3879)" style="fill:#EFA022;" width="125.423" height="17.944"/>
	
		<rect x="167.307" y="305.033" transform="matrix(-0.7071 0.7071 -0.7071 -0.7071 614.7004 373.3925)" style="fill:#EFA022;" width="125.423" height="17.944"/>
</g>
<rect x="271.869" y="216.075" transform="matrix(-0.7071 0.7071 -0.7071 -0.7071 645.7285 216.5596)" style="fill:#EFD01B;" width="12.288" height="51.879"/>
<g>
	<circle style="fill:#95D8C6;" cx="112" cy="144" r="8"/>
	<polygon style="fill:#95D8C6;" points="356.688,112 320,75.312 320,112 	"/>
</g>
<path d="M424,0H104c-4.424,0-8,3.584-8,8v40H56c-4.424,0-8,3.584-8,8v416c0,4.416,3.576,8,8,8h320c4.424,0,8-3.584,8-8v-40h40
	c4.424,0,8-3.584,8-8V8C432,3.584,428.424,0,424,0z M368,464H64V64h240v56c0,4.416,3.576,8,8,8h56V464z M356.688,112H320V75.312
	L356.688,112z M416,416h-32V120c0-2.216-0.896-4.216-2.352-5.664l-63.992-63.984C316.216,48.896,314.216,48,312,48H112V16h304V416z"
	/>
<path d="M274.344,186.344l-136,136c-1.024,1.024-1.752,2.312-2.104,3.712l-15.464,61.848l-6.432,6.44l11.312,11.312l6.432-6.432
	l61.848-15.464c1.408-0.352,2.696-1.08,3.72-2.104l136-136c7.92-7.92,12.288-18.456,12.288-29.656s-4.368-21.736-12.288-29.656
	C317.296,169.992,290.704,169.992,274.344,186.344z M179.312,352L268,263.312L280.688,276L192,364.688L179.312,352z M155.312,328
	L244,239.312L256.688,252L168,340.688L155.312,328z M255.312,228l8.688-8.688L300.688,256L292,264.688L255.312,228z
	 M148.336,343.648l28.016,28.016L138.992,381L148.336,343.648z M329.944,216c0,6.928-2.704,13.44-7.6,18.344L312,244.688
	L275.312,208l10.344-10.344c10.112-10.112,26.576-10.112,36.688,0C327.24,202.56,329.944,209.072,329.944,216z"/>
<rect x="120" y="416" width="192" height="16"/>
<rect x="94.304" y="160.001" transform="matrix(-0.5547 0.832 -0.832 -0.5547 376.0843 134.7341)" width="115.371" height="15.999"/>
<path d="M168,192c0,13.232,10.768,24,24,24s24-10.768,24-24s-10.768-24-24-24S168,178.768,168,192z M192,184c4.416,0,8,3.592,8,8
	s-3.584,8-8,8s-8-3.592-8-8S187.584,184,192,184z"/>
<path d="M136,144c0-13.232-10.768-24-24-24s-24,10.768-24,24s10.768,24,24,24S136,157.232,136,144z M112,152c-4.416,0-8-3.592-8-8
	s3.584-8,8-8s8,3.592,8,8S116.416,152,112,152z"/>
<g>
</g>
<g>
</g>
<g>
</g>
<g>
</g>
<g>
</g>
<g>
</g>
<g>
</g>
<g>
</g>
<g>
</g>
<g>
</g>
<g>
</g>
<g>
</g>
<g>
</g>
<g>
</g>
<g>
</g>
</svg>
